<?xml version="1.0" encoding="utf-8"?>
<!-- Generator: Adobe Illustrator 16.0.0, SVG Export Plug-In . SVG Version: 6.00 Build 0)  -->
<!DOCTYPE svg PUBLIC "-//W3C//DTD SVG 1.1//EN" "http://www.w3.org/Graphics/SVG/1.1/DTD/svg11.dtd">
<svg version="1.1" id="Layer_1" xmlns="http://www.w3.org/2000/svg" xmlns:xlink="http://www.w3.org/1999/xlink" x="0px" y="0px"
	 width="400px" height="400px" viewBox="0 0 400 400" enable-background="new 0 0 400 400" xml:space="preserve">
<circle fill="#F0491C" cx="194.667" cy="205.11" r="188.888"/>
<g>
	<path fill="#FFFFFF" d="M329.078,189.08c0,10.628-8.533,19.161-19.16,19.161v57.48c0,10.479-8.684,19.16-19.16,19.16
		c-26.646-22.154-69.605-52.541-121.548-56.883c-17.813,5.988-23.95,26.795-12.274,38.77c-10.478,17.215,2.994,29.34,18.861,41.764
		c-9.281,18.262-47.9,18.561-61.672,5.838c-8.682-26.645-21.555-53.289-11.077-86.969H84.785c-13.172,0-23.95-10.777-23.95-23.951
		v-28.74c0-13.173,10.778-23.95,23.95-23.95h71.851c57.481,0,105.382-33.53,134.122-57.48c10.477,0,19.16,8.682,19.16,19.16v57.48
		C320.545,169.919,329.078,178.452,329.078,189.08z M290.758,117.528c-39.07,29.938-76.941,47.152-114.962,51.343v40.416
		c38.021,4.191,75.892,21.107,114.962,51.045V117.528z"/>
</g>
</svg>
